<?xml version="1.0" encoding="utf-8" ?>
<svg xmlns="http://www.w3.org/2000/svg" xmlns:ev="http://www.w3.org/2001/xml-events" xmlns:xlink="http://www.w3.org/1999/xlink" baseProfile="full" height="168px" preserveAspectRatio="xMidYMid meet" style="font-family: times, serif; font-weight:normal; font-style: normal; font-size: 16px;" version="1.1" viewBox="0,0,192.0,168.0" width="192px">
  <defs/>
  <svg width="100%" x="0" y="0em">
    <defs/>
    <text text-anchor="middle" x="50%" y="1em">S</text>
  </svg>
  <svg width="37.5%" x="0%" y="3em">
    <defs/>
    <svg width="100%" x="0" y="0em">
      <defs/>
      <text text-anchor="middle" x="50%" y="1em">NP+PRON</text>
    </svg>
    <svg width="100%" x="0%" y="6em">
      <defs/>
      <svg width="100%" x="0" y="0em">
        <defs/>
        <text text-anchor="middle" x="50%" y="1em">I</text>
      </svg>
    </svg>
    <line stroke="black" x1="50%" x2="50%" y1="1.2em" y2="6em"/>
  </svg>
  <line stroke="black" x1="50%" x2="18.75%" y1="1.2em" y2="3em"/>
  <svg width="62.5%" x="37.5%" y="3em">
    <defs/>
    <svg width="100%" x="0" y="0em">
      <defs/>
      <text text-anchor="middle" x="50%" y="1em">VP</text>
    </svg>
    <svg width="40%" x="0%" y="3em">
      <defs/>
      <svg width="100%" x="0" y="0em">
        <defs/>
        <text text-anchor="middle" x="50%" y="1em">VERB</text>
      </svg>
      <svg width="100%" x="0%" y="3em">
        <defs/>
        <svg width="100%" x="0" y="0em">
          <defs/>
          <text text-anchor="middle" x="50%" y="1em">saw</text>
        </svg>
      </svg>
      <line stroke="black" x1="50%" x2="50%" y1="1.2em" y2="3em"/>
    </svg>
    <line stroke="black" x1="50%" x2="20%" y1="1.2em" y2="3em"/>
    <svg width="60%" x="40%" y="3em">
      <defs/>
      <svg width="100%" x="0" y="0em">
        <defs/>
        <text text-anchor="middle" x="50%" y="1em">NP+PRON</text>
      </svg>
      <svg width="100%" x="0%" y="3em">
        <defs/>
        <svg width="100%" x="0" y="0em">
          <defs/>
          <text text-anchor="middle" x="50%" y="1em">him</text>
        </svg>
      </svg>
      <line stroke="black" x1="50%" x2="50%" y1="1.2em" y2="3em"/>
    </svg>
    <line stroke="black" x1="50%" x2="70%" y1="1.2em" y2="3em"/>
  </svg>
  <line stroke="black" x1="50%" x2="68.75%" y1="1.2em" y2="3em"/>
</svg>
